<svg xmlns="http://www.w3.org/2000/svg" version="1.1" xmlns:xlink="http://www.w3.org/1999/xlink" width="512" height="512" x="0" y="0" viewBox="0 0 512 512" style="enable-background:new 0 0 512 512" xml:space="preserve" class=""><g><path d="M64.089 354.833H37.536A29.569 29.569 0 0 0 8 384.368v90.1A29.569 29.569 0 0 0 37.536 504h26.553a29.568 29.568 0 0 0 29.535-29.535v-90.1a29.568 29.568 0 0 0-29.535-29.532Zm13.535 119.632A13.551 13.551 0 0 1 64.089 488H37.536A13.551 13.551 0 0 1 24 474.465v-90.1a13.551 13.551 0 0 1 13.536-13.535h26.553a13.551 13.551 0 0 1 13.535 13.535Zm31.569-285.048v133.168a8 8 0 0 1-16 0V189.417a8 8 0 0 1 16 0Zm-93.189-8a8 8 0 0 1 8 8v133.168a8 8 0 0 1-16 0V189.417a8 8 0 0 1 7.996-8ZM161.4 16v133.167a8 8 0 1 1-16 0V16a8 8 0 0 1 16 0ZM37.536 157.167h26.553a29.568 29.568 0 0 0 29.535-29.535v-90.1A29.568 29.568 0 0 0 64.089 8H37.536A29.569 29.569 0 0 0 8 37.535v90.1a29.569 29.569 0 0 0 29.536 29.532ZM24 37.535A13.551 13.551 0 0 1 37.536 24h26.553a13.551 13.551 0 0 1 13.535 13.535v90.1a13.551 13.551 0 0 1-13.535 13.535H37.536A13.551 13.551 0 0 1 24 127.632Zm463.988 111.632V16a8 8 0 0 1 16 0v133.167a8 8 0 0 1-16 0Zm-13.524 32.25h-26.552a29.569 29.569 0 0 0-29.536 29.535v90.1a29.57 29.57 0 0 0 29.536 29.536h26.552A29.57 29.57 0 0 0 504 301.049v-90.1a29.569 29.569 0 0 0-29.536-29.532ZM488 301.049a13.551 13.551 0 0 1-13.536 13.536h-26.552a13.551 13.551 0 0 1-13.536-13.536v-90.1a13.551 13.551 0 0 1 13.536-13.535h26.552A13.551 13.551 0 0 1 488 210.952Zm16 61.784V496a8 8 0 0 1-16 0V362.833a8 8 0 1 1 16 0Zm-85.191 0V496a8 8 0 0 1-16 0V362.833a8 8 0 0 1 16 0Zm-114.722-8h-26.556A29.569 29.569 0 0 0 248 384.368v90.1A29.569 29.569 0 0 0 277.531 504h26.552a29.569 29.569 0 0 0 29.537-29.535v-90.1a29.569 29.569 0 0 0-29.537-29.532Zm13.533 119.632A13.551 13.551 0 0 1 304.083 488h-26.552A13.551 13.551 0 0 1 264 474.465v-90.1a13.551 13.551 0 0 1 13.536-13.535h26.552a13.551 13.551 0 0 1 13.537 13.535Zm118.589-346.833v-90.1A29.569 29.569 0 0 0 406.673 8H380.12a29.568 29.568 0 0 0-29.535 29.535v90.1a29.568 29.568 0 0 0 29.535 29.535h26.553a29.569 29.569 0 0 0 29.536-29.538Zm-69.624 0v-90.1A13.551 13.551 0 0 1 380.12 24h26.553a13.551 13.551 0 0 1 13.536 13.535v90.1a13.551 13.551 0 0 1-13.536 13.535H380.12a13.551 13.551 0 0 1-13.535-13.538Zm-67.776 0v-90.1A29.569 29.569 0 0 0 269.272 8H242.72a29.568 29.568 0 0 0-29.535 29.535v90.1a29.568 29.568 0 0 0 29.535 29.535h26.552a29.569 29.569 0 0 0 29.537-29.538Zm-69.624 0v-90.1A13.551 13.551 0 0 1 242.72 24h26.552a13.552 13.552 0 0 1 13.537 13.535v90.1a13.552 13.552 0 0 1-13.537 13.535H242.72a13.551 13.551 0 0 1-13.535-13.538Zm-34.8 61.785v133.168a8 8 0 0 1-16 0V189.417a8 8 0 0 1 16 0Zm125.273-8H293.1a29.568 29.568 0 0 0-29.536 29.535v90.1a29.569 29.569 0 0 0 29.536 29.533h26.552a29.57 29.57 0 0 0 29.536-29.536v-90.1a29.569 29.569 0 0 0-29.532-29.532Zm13.536 119.632a13.551 13.551 0 0 1-13.536 13.536H293.1a13.552 13.552 0 0 1-13.536-13.536v-90.1a13.551 13.551 0 0 1 13.536-13.532h26.552a13.551 13.551 0 0 1 13.536 13.535ZM178.81 362.833V496a8 8 0 0 1-16 0V362.833a8 8 0 0 1 16 0Z" class="" style="stroke:rgb(0,0,0);stroke-miterlimit:10" fill="#ffffff" opacity="1" data-original="#000000"></path></g></svg>